<svg xmlns="http://www.w3.org/2000/svg" xmlns:xlink="http://www.w3.org/1999/xlink" width="60" height="60" viewBox="0 0 60 60">
  <defs>
    <clipPath id="clip-path">
      <circle id="photo-1506794778202-cad84cf45f1d" cx="30" cy="30" r="30" fill="#fff"/>
    </clipPath>
  </defs>
  <g id="icon_profile_na_default" transform="translate(0 0.279)">
    <g id="Mask_Group_4" data-name="Mask Group 4" transform="translate(0 -0.279)" clip-path="url(#clip-path)">
      <g id="account_circle_black_24dp">
        <path id="Path_2787" data-name="Path 2787" d="M0,0H60V60H0Z" fill="none"/>
        <path id="Path_2788" data-name="Path 2788" d="M34,4A30,30,0,1,0,64,34,30.011,30.011,0,0,0,34,4Zm0,9a9,9,0,1,1-9,9A8.988,8.988,0,0,1,34,13Zm0,42.6a21.6,21.6,0,0,1-18-9.66c.09-5.97,12-9.24,18-9.24,5.97,0,17.91,3.27,18,9.24A21.6,21.6,0,0,1,34,55.6Z" transform="translate(-4 -4)" fill="#fff"/>
      </g>
    </g>
  </g>
</svg>
